# xmcd
#
# Track frame offsets:
#	150
#	17140
#	32490
#	48036
#	63846
#	76494
#	93740
#	110463
#	125797
#	143939
#
# Disc length: 2164 seconds
# Revision: 0
# Processed by: cddbd v1.5.2PL0 Copyright (c) Steve Scherf et al.
# Submitted via: dBpowerAMP V12.0
#
DISCID=8208720a
DTITLE=Billy Ray Cyrus - Some gave all
DYEAR=1992
DGENRE=Country
TTITLE0=Could've been me
TTITLE1=Achy breaky heart
TTITLE2=She's not cryin' anymore
TTITLE3=Wher'm i gonna live?
TTITLE4=These boots are made for walkin'
TTITLE5=Someday, somewhere, somehow
TTITLE6=Never thought i'd fall in love with you
TTITLE7=Ain't no good goodbye
TTITLE8=I'm so miserable
TTITLE9=Some gave all
EXTD=
EXTT0=
EXTT1=
EXTT2=
EXTT3=
EXTT4=
EXTT5=
EXTT6=
EXTT7=
EXTT8=
EXTT9=
PLAYORDER=
